<?xml version="1.0" encoding="iso-8859-1"?>
<!-- Generator: Adobe Illustrator 16.0.0, SVG Export Plug-In . SVG Version: 6.00 Build 0)  -->
<!DOCTYPE svg PUBLIC "-//W3C//DTD SVG 1.1//EN" "http://www.w3.org/Graphics/SVG/1.1/DTD/svg11.dtd">
<svg version="1.1" id="Capa_1" xmlns="http://www.w3.org/2000/svg" xmlns:xlink="http://www.w3.org/1999/xlink" x="0px" y="0px"
	 width="169.099px" height="169.099px" viewBox="0 0 169.099 169.099" style="enable-background:new 0 0 169.099 169.099;"
	 xml:space="preserve">
<g>
	<path d="M99.621,44.579c-12.542-3.229-24.571-8.232-22.378-29.773l5.629,6.44c0.727,0.84,1.741,1.305,2.765,1.379
		c1.037,0.071,2.091-0.255,2.933-0.988c1.686-1.469,1.854-4.016,0.387-5.704L76.264,1.389c-0.701-0.808-1.699-1.303-2.769-1.379
		c-1.06-0.074-2.124,0.279-2.93,0.985L56.021,13.681c-1.688,1.467-1.855,4.022-0.394,5.705c1.468,1.68,4.025,1.86,5.704,0.386
		l8.187-7.122c-0.119,0.304-0.264,0.583-0.308,0.919C66.302,40.262,82.758,48.058,93.35,51.242l-2.786,11.374l-3.709-4.203
		c-1.481-1.669-4.04-1.833-5.705-0.347c-1.674,1.475-1.839,4.03-0.353,5.705l9.377,10.613c0.711,0.812,1.714,1.283,2.747,1.354
		c0.615,0.047,1.265-0.054,1.861-0.311l11.622-4.956c2.046-0.878,3.012-3.248,2.123-5.305c-0.862-2.063-3.254-2.988-5.303-2.129
		l-4.974,2.118l2.867-11.645c11.579,3.8,21.236,11.094,27.951,20.43l-9.816,5.957l0.355-5.587c0.12-2.219-1.549-4.133-3.764-4.284
		c-0.013,0-0.013,0-0.023,0c-2.227-0.136-4.153,1.552-4.29,3.787l-0.887,14.123c-0.108,1.746,0.909,3.36,2.518,4.001l11.742,4.716
		c0.383,0.154,0.816,0.252,1.231,0.279c1.696,0.116,3.349-0.858,4.029-2.521c0.827-2.08-0.177-4.427-2.232-5.258l-5.014-2.01
		l10.385-6.303c5.393,10.331,7.549,22.308,5.485,34.375l-11.466-2.802l4.197-3.705c1.67-1.472,1.833-4.033,0.35-5.702
		c-1.477-1.68-4.026-1.833-5.712-0.36l-10.616,9.362c-1.289,1.154-1.724,3.021-1.045,4.618l4.971,11.622
		c0.595,1.447,1.968,2.343,3.437,2.446c0.622,0.05,1.257-0.055,1.858-0.312c2.046-0.881,3.012-3.255,2.134-5.301l-2.123-4.958
		l12.068,2.948c-3.712,11.399-10.944,21.122-20.796,27.984l-6.036-9.943l5.604,0.351c2.217,0.134,4.148-1.553,4.29-3.792
		c0.139-2.216-1.532-4.125-3.754-4.284c-0.011,0-0.027,0-0.027,0l-14.145-0.891c-1.732-0.111-3.349,0.912-3.995,2.526l-4.703,11.726
		c-0.817,2.075,0.173,4.429,2.241,5.26c0.41,0.155,0.815,0.252,1.236,0.278c1.696,0.115,3.367-0.856,4.027-2.527l2.003-4.996
		l6.325,10.421c-10.626,5.328-22.541,7.013-34.262,4.906l2.678-10.923l3.7,4.187c0.728,0.832,1.729,1.286,2.748,1.357
		c1.043,0.082,2.102-0.257,2.938-1.002c1.68-1.477,1.831-4.033,0.353-5.707l-9.359-10.621c-1.149-1.303-3.02-1.718-4.604-1.04
		l-11.628,4.958c-2.049,0.872-3.014,3.245-2.129,5.303c0.873,2.052,3.284,3.004,5.294,2.129l4.982-2.118l-2.822,11.491
		c-11.174-3.737-20.712-10.89-27.497-20.569l9.313-5.663l-0.348,5.593c-0.124,2.221,1.54,4.133,3.766,4.291c0,0,0.01,0,0.021,0
		c2.226,0.13,4.149-1.556,4.294-3.782l0.887-14.141c0.112-1.734-0.909-3.354-2.535-3.999l-11.72-4.706
		c-2.108-0.838-4.421,0.174-5.257,2.232c-0.829,2.073,0.168,4.432,2.241,5.264l5.015,2.011l-9.827,5.957
		c-5.276-10.49-7.041-22.216-5.078-33.801l10.484,2.565l-4.192,3.702c-1.674,1.48-1.828,4.03-0.348,5.71
		c0.733,0.827,1.732,1.286,2.759,1.358c1.041,0.081,2.101-0.264,2.941-1.003l10.612-9.367c1.305-1.154,1.738-3.01,1.055-4.618
		l-4.961-11.62c-0.861-2.055-3.273-2.998-5.295-2.129c-2.057,0.873-3.021,3.247-2.134,5.3l2.113,4.958l-11.117-2.709
		c3.621-11.168,10.636-20.782,20.166-27.652l5.699,9.373l-5.571-0.347c-2.236-0.14-4.15,1.545-4.302,3.781
		c-0.131,2.219,1.536,4.137,3.766,4.287c0,0,0.01,0,0.021,0L66.1,79.264c1.742,0.112,3.362-0.915,3.999-2.528l4.709-11.721
		c0.835-2.074-0.168-4.427-2.237-5.256c-2.045-0.826-4.415,0.173-5.257,2.241l-2.01,5.01L57.968,54.91
		c-0.609-1.026-1.62-1.636-2.71-1.843c-1.301-1.114-3.205-1.339-4.748-0.364c-13.726,8.79-23.426,22.352-27.286,38.191
		c-4.023,16.383-1.401,33.357,7.352,47.787c8.752,14.418,22.591,24.574,38.989,28.585c3.601,0.882,7.209,1.441,10.842,1.686
		c12.875,0.882,25.688-2.21,36.939-9.034c14.435-8.755,24.593-22.604,28.596-38.988C154.111,87.49,133.338,53.241,99.621,44.579z
		 M72.846,9.747l0.264,0.304c-0.242,0.011-0.472,0.021-0.695,0.065L72.846,9.747z M89.009,87.764
		c10.027,2.451,16.177,12.563,13.714,22.589c-2.463,10.04-12.569,16.188-22.6,13.718c-10.035-2.451-16.174-12.569-13.709-22.604
		C68.863,91.442,78.981,85.307,89.009,87.764z"/>
</g>
<g>
</g>
<g>
</g>
<g>
</g>
<g>
</g>
<g>
</g>
<g>
</g>
<g>
</g>
<g>
</g>
<g>
</g>
<g>
</g>
<g>
</g>
<g>
</g>
<g>
</g>
<g>
</g>
<g>
</g>
</svg>
