<?xml version="1.0" encoding="iso-8859-1"?>
<!-- Generator: Adobe Illustrator 16.0.0, SVG Export Plug-In . SVG Version: 6.00 Build 0)  -->
<!DOCTYPE svg PUBLIC "-//W3C//DTD SVG 1.1//EN" "http://www.w3.org/Graphics/SVG/1.1/DTD/svg11.dtd">
<svg version="1.1" id="Capa_1" xmlns="http://www.w3.org/2000/svg" xmlns:xlink="http://www.w3.org/1999/xlink" x="0px" y="0px"
	 width="451.637px" height="451.637px" viewBox="0 0 451.637 451.637" style="enable-background:new 0 0 451.637 451.637;"
	 xml:space="preserve">
<g>
	<g>
		<path d="M216.512,114.877c3.015,0.911,6.161,1.351,9.309,1.351c6.275,0,12.437-1.815,17.657-5.309
			c5.625-3.765,9.925-9.212,12.972-15.207c3.788-7.455,5.752-15.748,6.588-24.033c0.788-7.824,0.892-16.018-1.321-23.637
			c-1.716-5.909-4.981-11.289-9.903-15.06c-5.581-4.274-12.59-6.167-19.494-6.828c-13.756-1.315-30.392,0.859-38.573,13.396
			c-3.627,5.558-5.115,12.226-5.508,18.774c-0.528,8.795,0.409,17.915,2.758,26.406C194.626,97.861,202.839,110.75,216.512,114.877z
			"/>
		<path d="M359.84,255.666h-48.446c-0.097,0-0.364-2.553-0.398-2.818c-1.424-10.73-2.699-21.482-4.138-32.213
			c-2.371-17.685-4.939-35.706-11.013-52.567c-4.818-13.381-12.44-26.234-25.029-33.576c-3.828-2.233-7.997-3.932-12.013-5.792
			c-2.521-1.17-9.796-4.293-10.598-4.969l-7.978-6.725l-12.972,12.548l11.795,78.854c0.04,0.269-0.027,0.543-0.188,0.762
			l-12.212,16.713c-0.195,0.267-0.504,0.424-0.834,0.424s-0.641-0.157-0.834-0.424l-12.212-16.713
			c-0.16-0.219-0.228-0.493-0.187-0.762l11.804-78.916l-12.746-12.681l-7.662,6.461c-0.263,0.222-0.514,0.497-0.828,0.643
			c-1.629,0.756-14.44,6.671-19.169,8.97c-5.345,2.6-10.143,6.227-14.155,10.605c-10.408,11.354-15.445,26.712-18.892,41.424
			c-4.45,19-6.518,38.497-8.974,57.826c-0.368,2.904-0.741,5.81-1.124,8.713c-0.07,0.541-0.305,4.213-0.71,4.213H93.074
			c-1.222,0-2.434-0.018-3.646,0.185c-3.958,0.661-7.486,3.122-9.493,6.596c-4.253,7.359-0.49,17.078,7.595,19.673
			c2.414,0.776,4.905,0.646,7.397,0.646h81.628c0,0,0.178,1.552,0.224,1.983c0.689,6.607,1.381,13.219,2.072,19.827
			c1.138,10.902,2.278,21.806,3.418,32.707c1.223,11.705,2.445,23.409,3.669,35.113c0.942,9.018,1.885,19.391,2.827,28.409
			c0.543,5.202,0.526,11.145,3.148,15.795c4.081,7.239,12.819,10.84,20.811,8.517c7.854-2.282,13.301-9.844,13.001-18.013
			c-0.153-4.144-0.417-8.283-0.625-12.423c-0.497-9.806-0.993-20.963-1.487-30.767c-0.6-11.86-1.2-23.723-1.799-35.582
			c-0.519-10.229-1.034-20.456-1.552-30.686c-0.248-4.905-0.495-9.81-0.744-14.715c-0.001-0.056-0.004-0.112-0.008-0.169
			c4.03,0,8.063,0,12.095,0c-0.189,4.096-0.38,8.188-0.568,12.283c-0.454,9.822-0.909,19.646-1.363,29.47
			c-0.549,11.861-1.099,23.724-1.647,35.586c-0.473,10.21-0.944,21.774-1.417,31.985c-0.226,4.869-0.451,9.738-0.677,14.608
			c-0.301,6.509,2.929,12.817,8.456,16.301c7.066,4.454,16.535,3.338,22.416-2.571c3.156-3.174,4.76-7.227,5.235-11.613
			c0.224-2.045,0.445-4.091,0.669-6.137c0.93-8.545,1.858-18.442,2.788-26.986c1.262-11.579,2.521-23.158,3.779-34.738
			c1.213-11.136,2.424-22.271,3.636-33.406c0.784-7.212,1.569-14.426,2.354-21.639c0.018-0.16,0.288-3.143,0.343-3.143h33.302
			c11.457,0,22.914,0,34.372,0c5.561,0,11.122,0.05,16.683,0c7.385,0,13.55-6.166,13.55-13.55
			C373.516,261.731,367.271,255.666,359.84,255.666z M179.552,255.666c-3.307,0-6.478,0-9.784,0
			c1.469-11.161,2.779-22.342,4.32-33.492c1.44-10.436,3.043-20.882,5.483-31.136L179.552,255.666z M272.197,255.666l-0.127-64.685
			c2.415,10.142,4.009,20.472,5.438,30.793c1.562,11.282,2.889,22.598,4.375,33.892
			C278.573,255.666,275.507,255.666,272.197,255.666z"/>
		<path d="M448.92,220.909c-2.347-17.922-10.427-53.18-10.427-53.18c-4.158-16.376-19.688-27.96-36.582-27.213
			c-8.797,0.39-17.311,4.045-23.619,10.192c-3.074,2.997-5.607,6.543-7.451,10.421c-1.111,2.339-2.142,4.915-2.879,7.169
			c-2.761,8.433-6.1,16.875-10.712,24.442c-3.518,5.771-7.721,11.194-12.821,15.655c-2.622,2.293-5.482,4.319-8.563,5.948
			c-1.565,0.829-3.188,1.555-4.854,2.163c-1.891,0.688-3.785,1.212-5.534,2.242c-7.268,4.28-10.342,13.516-7.149,21.309
			c1.596,3.893,4.626,7.1,8.411,8.931c4.39,2.12,9.109,2.068,13.685,0.577c14.208-4.63,26.436-13.726,36.039-25.059
			c2.401,15.937,2.993,39.754,2.328,48.493c-0.667,8.738-2.752,13.103-2.752,13.103c-0.117,0.469-0.27,0.371-0.71,0.467
			c-1.401,0.304-2.805,0.61-4.205,0.923c-5.483,1.226-10.954,2.521-16.388,3.959c-7.632,2.021-15.406,4.18-22.508,7.694
			c-1.492,0.739-15.699,8.79-15.899,23.692c-0.07,5.348,0.401,10.719,1.259,15.979c0.923,5.681,2.129,11.313,3.438,16.917
			c4.577,19.601,10.36,38.914,16.376,58.114c1.056,3.369,2.906,6.312,5.776,8.436c3.405,2.519,7.766,3.549,11.938,2.814
			c8.351-1.471,14.103-9.666,12.627-18.02c-1.402-7.949-3.024-15.858-4.4-23.813c-1.896-10.949-3.645-21.934-4.972-32.967
			c-0.353-2.927-0.671-5.854-0.936-8.789c-0.125-1.399-0.238-2.799-0.332-4.201c-0.023-0.345-0.045-0.601-0.066-0.943
			c-0.03-0.528,0.21-0.471,0.667-0.541c0.813-0.127,1.628-0.248,2.443-0.363c5.761-0.817,11.554-1.412,17.347-1.934
			c10.011-0.896,20.042-1.524,30.08-2.017c4.062-0.197,8.172-0.486,12.134-1.465c4.119-1.02,8.056-2.764,11.574-5.135
			c5.945-4.005,10.595-9.769,13.282-16.411c1.799-4.445,2.991-9.146,3.949-13.834c1.925-9.422,2.775-19.054,3.039-28.654
			C451.96,250.944,450.875,235.848,448.92,220.909z"/>
		<path d="M356.806,124.404c4.3,5.602,9.781,10.431,16.333,13.199c0,0,9.402,4.041,19.671,1.564
			c5.794-1.397,11.962-4.896,16.232-9.746c4.646-5.277,7.446-11.934,8.836-18.775c1.75-8.618,1.388-17.58-0.107-26.206
			c-1.313-7.574-3.396-15.271-7.791-21.686c-3.567-5.208-8.643-9.12-14.704-10.959c-7.356-2.23-15.313-1.524-22.698,0.176
			c-7.562,1.742-15.231,4.602-21.088,9.858c-4.731,4.249-7.738,9.935-8.733,16.205c-1.195,7.537,0.268,15.21,2.405,22.44
			C347.683,109,351.369,117.322,356.806,124.404z"/>
		<path d="M121.896,300.481c-2.673-1.588-5.563-2.816-8.465-3.915c-10.419-3.944-21.394-6.489-32.245-8.924l-5.58-1.087
			c0,0-2.764-10.44-3.26-21.252c-0.359-7.789,0.805-27.311,2.836-40.795c5.982,7.06,12.965,13.306,20.894,18.104
			c4.237,2.564,8.729,4.705,13.397,6.36c2.595,0.92,5.192,1.729,7.974,1.729c2.08,0,4.156-0.385,6.099-1.125
			c8.043-3.066,12.668-11.938,10.527-20.288c-0.999-3.902-3.385-7.396-6.666-9.733c-3.154-2.248-7.049-2.947-10.495-4.633
			c-12.133-5.933-20.591-17.528-26.464-29.349c-2.149-4.327-4.008-8.806-5.554-13.383c-0.407-1.204-0.792-2.416-1.142-3.637
			c-0.61-2.137-1.498-4.105-2.373-6.146c-3.409-7.95-9.665-14.545-17.459-18.312c-7.694-3.717-16.621-4.606-24.887-2.438
			c-7.831,2.055-14.873,6.769-19.745,13.235c-2.51,3.335-4.426,7.104-5.65,11.092c-1.641,5.341-2.762,10.898-3.984,16.349
			c-4.178,18.629-7.351,37.526-8.813,56.572c-0.997,12.991-1.213,26.087-0.073,39.076c0.686,7.813,1.842,15.633,3.906,23.208
			c1.92,7.045,4.784,13.604,9.981,18.953c5.954,6.127,14.055,9.996,22.558,10.799c2.077,0.196,4.119,0.436,6.205,0.536
			c2.194,0.108,4.389,0.211,6.582,0.332c4.923,0.271,9.844,0.586,14.761,0.95c5.676,0.423,11.346,0.907,17.005,1.51
			c2.896,0.31,5.791,0.651,8.679,1.044c1.397,0.19,2.791,0.396,4.183,0.617c-0.088,1.509-0.199,3.016-0.327,4.521
			c-0.971,11.462-2.695,22.867-4.55,34.216c-1.583,9.688-3.327,19.347-5.19,28.982c-0.574,2.979-1.206,5.865-0.646,8.917
			c0.742,4.051,3.115,7.723,6.516,10.048c7.024,4.806,16.925,2.924,21.685-4.132c1.764-2.615,2.489-5.785,3.421-8.758
			c1.363-4.348,2.691-8.705,3.992-13.07c3.095-10.384,6.051-20.812,8.736-31.311c2.815-11.008,6.058-22.153,6.737-33.519
			C136.218,311.475,124.529,302.046,121.896,300.481z"/>
		<path d="M38.575,129.242c4.271,4.85,10.438,8.348,16.233,9.745c10.268,2.476,19.671-1.565,19.671-1.565
			c6.551-2.768,12.032-7.597,16.332-13.197c5.437-7.083,9.124-15.406,11.646-23.93c2.139-7.23,3.602-14.903,2.404-22.441
			c-0.994-6.27-4-11.955-8.733-16.204c-5.854-5.256-13.524-8.116-21.087-9.858c-7.386-1.701-15.343-2.406-22.698-0.176
			c-6.063,1.839-11.137,5.751-14.705,10.959c-4.395,6.415-6.478,14.111-7.791,21.685c-1.495,8.627-1.857,17.589-0.107,26.207
			C31.129,117.309,33.927,123.964,38.575,129.242z"/>
	</g>
</g>
<g>
</g>
<g>
</g>
<g>
</g>
<g>
</g>
<g>
</g>
<g>
</g>
<g>
</g>
<g>
</g>
<g>
</g>
<g>
</g>
<g>
</g>
<g>
</g>
<g>
</g>
<g>
</g>
<g>
</g>
</svg>
