<?xml version="1.0" encoding="iso-8859-1"?>
<!-- Generator: Adobe Illustrator 18.1.1, SVG Export Plug-In . SVG Version: 6.00 Build 0)  -->
<svg version="1.1" id="Capa_1" xmlns="http://www.w3.org/2000/svg" xmlns:xlink="http://www.w3.org/1999/xlink" x="0px" y="0px"
	 viewBox="0 0 474.172 474.172" style="enable-background:new 0 0 474.172 474.172;" xml:space="preserve">
<g>
	<g>
		<g>
			<path style="fill:#010002;" d="M474.172,0H191.038l-70.865,163.116l3.585,2.983c8.722,7.137,13.721,17.737,13.721,29.027
				c0,20.703-16.859,37.603-37.587,37.603c-20.712,0-37.587-16.899-37.587-37.603c0-18.574,13.867-34.546,32.246-37.164l3.414-0.504
				L166.368,0H0v474.172h474.172v-74.206H330.744l-1.837,2.812c-6.576,10.177-17.72,16.225-29.783,16.225
				c-19.582,0-35.497-15.932-35.497-35.497s15.916-35.522,35.497-35.522c15.331,0,28.865,9.803,33.685,24.345l1.406,4.235h139.958
				v-256.83H316.901v76.644l3.967,1.488c14.192,5.381,23.735,19.175,23.735,34.294c0,20.273-16.46,36.709-36.692,36.709
				c-20.232,0-36.701-16.436-36.701-36.709c0-13.632,7.527-26.076,19.639-32.449l3.276-1.74V96.974h180.032V0H474.172z"/>
		</g>
		<g>
			<path style="fill:#010002;" d="M81.074,194.208c0,10.275,8.324,18.614,18.598,18.614c10.242,0,18.582-8.34,18.582-18.614
				c0-10.226-8.34-18.582-18.582-18.582C89.398,175.626,81.074,183.982,81.074,194.208z"/>
		</g>
		<g>
			<circle style="fill:#010002;" cx="305.886" cy="231.729" r="18.598"/>
		</g>
		<g>
			<circle style="fill:#010002;" cx="298.741" cy="383.506" r="18.59"/>
		</g>
	</g>
</g>
<g>
</g>
<g>
</g>
<g>
</g>
<g>
</g>
<g>
</g>
<g>
</g>
<g>
</g>
<g>
</g>
<g>
</g>
<g>
</g>
<g>
</g>
<g>
</g>
<g>
</g>
<g>
</g>
<g>
</g>
</svg>
